{"asset":{"generator":"Khronos glTF Blender I/O v1.1.46","version":"2.0"},"scene":0,"scenes":[{"name":"Scene","nodes":[0]}],"nodes":[{"mesh":0,"name":"model.002","rotation":[-0.9482594132423401,-0.0703364908695221,0.037350572645664215,0.3073464035987854],"scale":[3.939999580383301,5.039999961853027,4.179999828338623],"translation":[3.2355594635009766,0.14768600463867188,8.884254455566406]}],"materials":[{"doubleSided":true,"emissiveFactor":[0,0,0],"name":"material0000.002","pbrMetallicRoughness":{"baseColorTexture":{"index":0,"texCoord":0},"metallicFactor":0,"roughnessFactor":0.9666666388511658}}],"meshes":[{"name":"model.002","primitives":[{"attributes":{"POSITION":0,"NORMAL":1,"TEXCOORD_0":2},"indices":3,"material":0}]}],"textures":[{"source":0}],"images":[{"mimeType":"image/jpeg","name":"texture0","uri":"data:application/octet-stream;base64,"}],"accessors":[{"bufferView":0,"componentType":5126,"count":32365,"max":[1.1454459428787231,1.2211248874664307,1.8048555850982666],"min":[-1.3536860942840576,-1.2271695137023926,-1.6807373762130737],"type":"VEC3"},{"bufferView":1,"componentType":5126,"count":32365,"type":"VEC3"},{"bufferView":2,"componentType":5126,"count":32365,"type":"VEC2"},{"bufferView":3,"componentType":5123,"count":159663,"type":"SCALAR"}],"bufferViews":[{"buffer":0,"byteLength":388380,"byteOffset":0},{"buffer":0,"byteLength":388380,"byteOffset":388380},{"buffer":0,"byteLength":258920,"byteOffset":776760},{"buffer":0,"byteLength":319326,"byteOffset":1035680}],"buffers":[{"byteLength":1355008,"uri":"data:application/octet-stream;base64,"}]}